<svg id="Layer_1" height="512" viewBox="0 0 512 512" width="512" xmlns="http://www.w3.org/2000/svg" data-name="Layer 1"><path d="m158.406 79.583v13.072h62.618c.438 0 .871.024 1.306.033v-13.105a6.209 6.209 0 0 0 -6.187-6.216h-51.549a6.209 6.209 0 0 0 -6.188 6.216z"/><path d="m215.481 22h11.807v20.052h-11.807z"/><path d="m179.892 52.052h20.952v11.315h-20.952z"/><path d="m175.255 22h30.227v20.052h-30.227z"/><path d="m338.106 245.844h6.817v12.024h-6.817z"/><path d="m354.924 245.844h11.531v12.024h-11.531z"/><path d="m376.455 245.844h6.817v12.024h-6.817z"/><path d="m352.562 278.221a57.81 57.81 0 0 1 15.96.118v-10.471h-15.96z"/><path d="m346.311 223.074h28.461v12.77h-28.461z"/><path d="m153.448 22h11.807v20.052h-11.807z"/><path d="m354.56 121.837v91.237h13.012l.052-91.709a41.7 41.7 0 0 0 -41.639-41.787h-93.655v10.047l90.7.456a31.79 31.79 0 0 1 31.53 31.756z"/><path d="m329.511 336.661a30.569 30.569 0 1 0 30.568-30.661 30.651 30.651 0 0 0 -30.568 30.661zm35.44-20.907.109 16.408 10.827 5.827a5 5 0 1 1 -4.739 8.805l-13.438-7.232a5 5 0 0 1 -2.631-4.37l-.128-19.372a5 5 0 0 1 4.967-5.033h.034a5 5 0 0 1 4.999 4.967z"/><path d="m103.006 177.932h172.386v20.033h-172.386z"/><path d="m275.392 207.965h-172.386v173.5h172.386zm-142.37 141.6a5 5 0 0 1 -10 0v-89.165a5 5 0 0 1 10 0zm0-109.333a5 5 0 0 1 -10 0v-5.146a5 5 0 0 1 10 0z"/><path d="m275.392 157.022a54.429 54.429 0 0 0 -54.368-54.367h-63.651a54.429 54.429 0 0 0 -54.367 54.367v10.91h172.386z"/><path d="m311.165 336.661a48.915 48.915 0 1 0 48.914-48.936 48.979 48.979 0 0 0 -48.914 48.936zm89.483 0a40.569 40.569 0 1 1 -40.569-40.661 40.662 40.662 0 0 1 40.569 40.661z"/><path d="m103.006 391.465h172.386v20.033h-172.386z"/><path d="m157.373 490h63.651a54.429 54.429 0 0 0 54.368-54.367v-14.133h-172.386v14.135a54.429 54.429 0 0 0 54.367 54.365z"/></svg>