<svg id="Layer_1" height="512" viewBox="0 0 128 128" width="512" xmlns="http://www.w3.org/2000/svg" xmlns:xlink="http://www.w3.org/1999/xlink" data-name="Layer 1"><linearGradient id="linear-gradient" gradientUnits="userSpaceOnUse" x1="94.985" x2="33.015" y1="94.986" y2="33.015"><stop offset="0" stop-color="#fb0025"/><stop offset="1" stop-color="#0087ff"/></linearGradient><path d="m109.329 48.083h-8.662a1.75 1.75 0 0 0 -1.75 1.75v2.583h-19.788a5.06 5.06 0 0 0 -4.569-2.916h-4.029v-4.934a14.589 14.589 0 0 0 7.061-18.391 1.75 1.75 0 1 0 -3.256 1.283 11.075 11.075 0 0 1 -1.989 11.363 14.477 14.477 0 0 0 -16.694 0 11.085 11.085 0 0 1 8.347-18.4 11.268 11.268 0 0 1 1.918.164 1.75 1.75 0 1 0 .6-3.448 14.617 14.617 0 0 0 -17.118 14.387 14.557 14.557 0 0 0 4.96 10.937c.034.03.065.065.1.091a14.636 14.636 0 0 0 3.012 2.014v4.934h-4.032a5.071 5.071 0 0 0 -5.065 5.065v17.518h-21.042a1.75 1.75 0 0 0 -1.75 1.75v2.584h-5.162v-24.834h5.162v16.084a1.75 1.75 0 0 0 3.5 0v-11.75h14.584a1.75 1.75 0 0 0 0-3.5h-14.584v-2.584a1.75 1.75 0 0 0 -1.75-1.75h-8.662a1.75 1.75 0 0 0 -1.75 1.75v28.334a1.75 1.75 0 0 0 1.75 1.75h8.662a1.75 1.75 0 0 0 1.75-1.75v-2.584h19.788a5.072 5.072 0 0 0 3.546 2.817v5.85a1.75 1.75 0 1 0 3.5 0v-5.75h16.166v15.5a1.75 1.75 0 0 0 3.5 0v-15.6a5.074 5.074 0 0 0 4.042-4.961v-17.522h19.292v16.166h-14.584a1.75 1.75 0 0 0 0 3.5h14.584v2.583a1.75 1.75 0 0 0 1.75 1.75h8.662a1.75 1.75 0 0 0 1.75-1.75v-28.333a1.75 1.75 0 0 0 -1.75-1.75zm-39.829-6.929a11.017 11.017 0 0 1 -11.007 0 10.97 10.97 0 0 1 11.007 0zm-8.535 4.652a14.482 14.482 0 0 0 6.063 0v3.694h-6.059zm15.16 27.629a1.567 1.567 0 0 1 -1.565 1.565h-21.12a1.567 1.567 0 0 1 -1.565-1.565v-18.87a1.567 1.567 0 0 1 1.565-1.565h21.12a1.567 1.567 0 0 1 1.565 1.565zm31.454 2.982h-5.162v-24.834h5.162zm-29.412 22.5h-22.25v-3.25a1.75 1.75 0 1 0 -3.5 0v3.25h-2.584a1.75 1.75 0 0 0 -1.75 1.75v8.663a1.75 1.75 0 0 0 1.75 1.75h28.334a1.75 1.75 0 0 0 1.75-1.75v-8.663a1.75 1.75 0 0 0 -1.75-1.75zm-1.75 8.663h-24.834v-5.163h24.834zm-24-17.162v-.834a1.75 1.75 0 1 1 3.5 0v.834a1.75 1.75 0 0 1 -3.5 0zm17.854-70.249a1.75 1.75 0 0 1 2.449-.359q.485.361.938.761a1.75 1.75 0 0 1 -2.318 2.623q-.341-.3-.709-.576a1.75 1.75 0 0 1 -.36-2.449zm-9.09 6.771 4.189 5.285a1.75 1.75 0 1 1 -2.741 2.175l-4.189-5.285a1.75 1.75 0 1 1 2.742-2.174z" fill="url(#linear-gradient)"/></svg>